<svg xmlns="http://www.w3.org/2000/svg" viewBox="0 0 1024 1024">
  <path d="M262 762 L636 388" fill="none" stroke="#000000" stroke-width="62" stroke-linecap="round" stroke-linejoin="round"/>
  <path d="M700 190 C712 268 740 296 818 308 C740 320 712 348 700 426 C688 348 660 320 582 308 C660 296 688 268 700 190 Z" fill="#009FE0" stroke="#000000" stroke-width="40" stroke-linecap="round" stroke-linejoin="round"/>
  <path d="M406 262 C412 300 426 314 464 320 C426 326 412 340 406 378 C400 340 386 326 348 320 C386 314 400 300 406 262 Z" fill="#000000" stroke="#000000" stroke-width="20" stroke-linejoin="round"/>
  <path d="M810 560 C815 590 826 601 856 606 C826 611 815 622 810 652 C805 622 794 611 764 606 C794 601 805 590 810 560 Z" fill="#000000" stroke="#000000" stroke-width="18" stroke-linejoin="round"/>
</svg>
